<svg width="1399" height="815" viewBox="0 0 1399 815" fill="none" xmlns="http://www.w3.org/2000/svg">
<g id="grid-cartograph-svg">
<g id="Group 1">
<g id="HI">
<rect id="HI_2" x="167" y="790" width="7" height="7" rx="3.5" fill="#333333"/>
</g>
<g id="FL">
<rect id="FL_2" x="1029" y="606" width="115" height="116" rx="5" fill="#333333"/>
</g>
<g id="TX">
<rect id="TX_2" x="567" y="563" width="138" height="137" rx="5" fill="#333333"/>
</g>
<g id="west coast">
<g id="CA">
<rect id="CA_2" x="52" y="380" width="253" height="253" rx="5" fill="#333333"/>
</g>
<g id="OR">
<rect id="OR_2" x="276" y="290" width="27" height="26" rx="5" fill="#333333"/>
</g>
<g id="WA">
<rect id="WA_2" x="255" y="198" width="47" height="47" rx="5" fill="#333333"/>
</g>
<g id="AK">
<rect id="AK_2" x="244" y="100" width="4" height="4" rx="2" fill="#333333"/>
</g>
</g>
<g id="next coast">
<g id="ID">
<rect id="ID_2" x="367" y="198" width="5" height="5" rx="2.5" fill="#333333"/>
</g>
<g id="NV">
<rect id="NV_2" x="372" y="390" width="21" height="21" rx="5" fill="#333333"/>
</g>
<g id="UT">
<rect id="UT_2" x="372" y="289" width="16" height="15" rx="5" fill="#333333"/>
</g>
<g id="AZ">
<rect id="AZ_2" x="372" y="497" width="38" height="38" rx="5" fill="#333333"/>
</g>
</g>
<g id="mid west 1">
<g id="NM">
<rect id="NM_2" x="472" y="495" width="11" height="10" rx="5" fill="#333333"/>
</g>
<g id="CO">
<rect id="CO_2" x="472" y="376" width="33" height="33" rx="5" fill="#333333"/>
</g>
<g id="WY">
<rect id="WY_2" x="476" y="288" width="1" height="2" rx="0.5" fill="#333333"/>
</g>
<g id="MT">
<rect id="MT_2" x="472" y="198" width="5" height="4" rx="2" fill="#333333"/>
</g>
</g>
<g id="mid west 2">
<g id="OK">
<rect id="OK_2" x="567" y="481" width="16" height="16" rx="5" fill="#333333"/>
</g>
<g id="KS">
<rect id="KS_2" x="567" y="405" width="13" height="12" rx="5" fill="#333333"/>
</g>
<g id="NE">
<rect id="NE_2" x="567" y="324" width="9" height="11" rx="4.5" fill="#333333"/>
</g>
<g id="SD">
<rect id="SD_2" x="567" y="263" width="4" height="3" rx="1.5" fill="#333333"/>
</g>
<g id="ND">
<rect id="ND_2" x="567" y="198" width="2" height="1" rx="0.5" fill="#333333"/>
</g>
</g>
<g id="mid 1">
<g id="MN">
<rect id="MN_2" x="645" y="189" width="28" height="28" rx="5" fill="#333333"/>
</g>
<g id="IA">
<rect id="IA_2" x="645" y="277" width="12" height="12" rx="5" fill="#333333"/>
</g>
<g id="MO">
<rect id="MO_2" x="645" y="329" width="28" height="28" rx="5" fill="#333333"/>
</g>
<g id="AR">
<rect id="AR_2" x="645" y="407" width="11" height="10" rx="5" fill="#333333"/>
</g>
<g id="LA">
<rect id="LA_2" x="645" y="467" width="19" height="19" rx="5" fill="#333333"/>
</g>
</g>
<g id="mid 2">
<g id="MS">
<rect id="MS_2" x="735" y="485" width="10" height="11" rx="5" fill="#333333"/>
</g>
<g id="IL">
<rect id="IL_2" x="735" y="328" width="70" height="70" rx="5" fill="#333333"/>
</g>
<g id="WI">
<rect id="WI_2" x="735" y="189" width="23" height="22" rx="5" fill="#333333"/>
</g>
</g>
<g id="mid 3">
<g id="AL">
<rect id="AL_2" x="867" y="516" width="16" height="15" rx="5" fill="#333333"/>
</g>
<g id="TN">
<rect id="TN_2" x="867" y="438" width="28" height="28" rx="5" fill="#333333"/>
</g>
<g id="KY">
<rect id="KY_2" x="867" y="371" width="18" height="17" rx="5" fill="#333333"/>
</g>
<g id="IN">
<rect id="IN_2" x="867" y="286" width="35" height="35" rx="5" fill="#333333"/>
</g>
<g id="MI">
<rect id="MI_2" x="867" y="189" width="49" height="47" rx="5" fill="#333333"/>
</g>
</g>
<g id="east next">
<g id="GA">
<rect id="GA_2" x="978" y="442" width="58" height="58" rx="5" fill="#333333"/>
</g>
<g id="OH">
<rect id="OH_2" x="978" y="316" width="63" height="63" rx="5" fill="#333333"/>
</g>
<g id="PA">
<rect id="PA_2" x="978" y="189" width="66" height="64" rx="5" fill="#333333"/>
</g>
<g id="WV">
<rect id="WV_2" x="1036" y="283" width="8" height="7" rx="3.5" fill="#333333"/>
</g>
</g>
<g id="east coast">
<g id="SC">
<rect id="SC_2" x="1083" y="553" width="21" height="21" rx="5" fill="#333333"/>
</g>
<g id="NC">
<rect id="NC_2" x="1083" y="481" width="50" height="51" rx="5" fill="#333333"/>
</g>
<g id="VA">
<rect id="VA_2" x="1083" y="418" width="42" height="42" rx="5" fill="#333333"/>
</g>
<g id="DC">
<rect id="DC_2" x="1125" y="388" width="4.5" height="4.5" rx="2.25" fill="#333333"/>
</g>
<g id="MD">
<rect id="MD_2" x="1111" y="320" width="33" height="34" rx="5" fill="#333333"/>
</g>
<g id="DE">
<rect id="DE_2" x="1174" y="283" width="6" height="5" rx="2.5" fill="#333333"/>
</g>
<g id="NJ">
<rect id="NJ_2" x="1127" y="204" width="44" height="43" rx="5" fill="#333333"/>
</g>
</g>
<g id="NY">
<rect id="NY_2" x="1106" y="60" width="124" height="123" rx="5" fill="#333333"/>
</g>
<g id="what">
<g id="CT">
<rect id="CT_2" x="1256" y="236" width="17" height="17" rx="5" fill="#333333"/>
</g>
<g id="RI">
<rect id="RI_2" x="1305" y="193" width="5" height="5" rx="2.5" fill="#333333"/>
</g>
<g id="MA">
<rect id="MA_2" x="1275" y="115" width="47" height="47" rx="5" fill="#333333"/>
</g>
<g id="NH">
<rect id="NH_2" x="1315" y="76" width="7" height="7" rx="3.5" fill="#333333"/>
</g>
<g id="VT">
<rect id="VT_2" x="1257" y="56" width="1.9" height="1.9" rx="0.95" fill="#333333"/>
</g>
<g id="ME">
<rect id="ME_2" x="1315" y="28" width="7" height="7" rx="3.5" fill="#333333"/>
</g>
</g>
</g>
</g>
</svg>
