<svg width="1399" height="963" viewBox="0 0 1399 963" fill="none" xmlns="http://www.w3.org/2000/svg">
<g id="grid-cartograph-svg">
<g id="Group 1">
<g id="HI">
<rect id="HI_2" x="489" y="792" width="7" height="7" rx="3.5" fill="#333333"/>
</g>
<g id="FL">
<rect id="FL_2" x="1052" y="750" width="115" height="116" rx="5" fill="#333333"/>
</g>
<g id="TX">
<rect id="TX_2" x="579" y="643" width="138" height="137" rx="5" fill="#333333"/>
</g>
<g id="west coast">
<g id="CA">
<rect id="CA_2" x="43" y="383" width="253" height="253" rx="5" fill="#333333"/>
</g>
<g id="OR">
<rect id="OR_2" x="267" y="293" width="27" height="26" rx="5" fill="#333333"/>
</g>
<g id="WA">
<rect id="WA_2" x="246" y="201" width="47" height="47" rx="5" fill="#333333"/>
</g>
</g>
<g id="AK">
<rect id="AK_2" x="222" y="733" width="4" height="4" rx="2" fill="#333333"/>
</g>
<g id="next coast">
<g id="ID">
<rect id="ID_2" x="379" y="149" width="5" height="5" rx="2.5" fill="#333333"/>
</g>
<g id="NV">
<rect id="NV_2" x="384" y="391" width="21" height="21" rx="5" fill="#333333"/>
</g>
<g id="UT">
<rect id="UT_2" x="384" y="265" width="16" height="15" rx="5" fill="#333333"/>
</g>
<g id="AZ">
<rect id="AZ_2" x="384" y="523" width="38" height="38" rx="5" fill="#333333"/>
</g>
</g>
<g id="mid west 1">
<g id="NM">
<rect id="NM_2" x="484" y="560" width="11" height="10" rx="5" fill="#333333"/>
</g>
<g id="CO">
<rect id="CO_2" x="484" y="422" width="33" height="33" rx="5" fill="#333333"/>
</g>
<g id="WY">
<rect id="WY_2" x="488" y="315" width="1" height="2" rx="0.5" fill="#333333"/>
</g>
<g id="MT">
<rect id="MT_2" x="484" y="206" width="5" height="4" rx="2" fill="#333333"/>
</g>
</g>
<g id="mid west 2">
<g id="OK">
<rect id="OK_2" x="579" y="506" width="16" height="16" rx="5" fill="#333333"/>
</g>
<g id="KS">
<rect id="KS_2" x="579" y="430" width="13" height="12" rx="5" fill="#333333"/>
</g>
<g id="NE">
<rect id="NE_2" x="579" y="349" width="9" height="11" rx="4.5" fill="#333333"/>
</g>
<g id="SD">
<rect id="SD_2" x="579" y="288" width="4" height="3" rx="1.5" fill="#333333"/>
</g>
<g id="ND">
<rect id="ND_2" x="579" y="223" width="2" height="1" rx="0.5" fill="#333333"/>
</g>
</g>
<g id="mid 1">
<g id="MN">
<rect id="MN_2" x="671" y="216" width="28" height="28" rx="5" fill="#333333"/>
</g>
<g id="IA">
<rect id="IA_2" x="671" y="304" width="12" height="12" rx="5" fill="#333333"/>
</g>
<g id="MO">
<rect id="MO_2" x="671" y="356" width="28" height="28" rx="5" fill="#333333"/>
</g>
<g id="AR">
<rect id="AR_2" x="671" y="434" width="11" height="10" rx="5" fill="#333333"/>
</g>
<g id="LA">
<rect id="LA_2" x="671" y="494" width="19" height="19" rx="5" fill="#333333"/>
</g>
</g>
<g id="mid 2">
<g id="MS">
<rect id="MS_2" x="767" y="589" width="10" height="11" rx="5" fill="#333333"/>
</g>
<g id="IL">
<rect id="IL_2" x="767" y="371" width="70" height="70" rx="5" fill="#333333"/>
</g>
<g id="WI">
<rect id="WI_2" x="767" y="201" width="23" height="22" rx="5" fill="#333333"/>
</g>
</g>
<g id="mid 3">
<g id="AL">
<rect id="AL_2" x="879" y="621" width="16" height="15" rx="5" fill="#333333"/>
</g>
<g id="TN">
<rect id="TN_2" x="879" y="520" width="28" height="28" rx="5" fill="#333333"/>
</g>
<g id="KY">
<rect id="KY_2" x="879" y="430" width="18" height="17" rx="5" fill="#333333"/>
</g>
<g id="IN">
<rect id="IN_2" x="879" y="322" width="35" height="35" rx="5" fill="#333333"/>
</g>
<g id="MI">
<rect id="MI_2" x="879" y="202" width="49" height="47" rx="5" fill="#333333"/>
</g>
</g>
<g id="east next">
<g id="GA">
<rect id="GA_2" x="990" y="585" width="58" height="58" rx="5" fill="#333333"/>
</g>
<g id="OH">
<rect id="OH_2" x="990" y="459" width="63" height="63" rx="5" fill="#333333"/>
</g>
<g id="PA">
<rect id="PA_2" x="990" y="332" width="66" height="64" rx="5" fill="#333333"/>
</g>
<g id="WV">
<rect id="WV_2" x="1048" y="426" width="8" height="7" rx="3.5" fill="#333333"/>
</g>
</g>
<g id="east coast">
<g id="SC">
<rect id="SC_2" x="1103" y="682" width="21" height="21" rx="5" fill="#333333"/>
</g>
<g id="NC">
<rect id="NC_2" x="1103" y="610" width="50" height="51" rx="5" fill="#333333"/>
</g>
<g id="VA">
<rect id="VA_2" x="1103" y="547" width="42" height="42" rx="5" fill="#333333"/>
</g>
<g id="DC">
<rect id="DC_2" x="1145" y="517" width="4.5" height="4.5" rx="2.25" fill="#333333"/>
</g>
<g id="MD">
<rect id="MD_2" x="1131" y="449" width="33" height="34" rx="5" fill="#333333"/>
</g>
<g id="DE">
<rect id="DE_2" x="1194" y="412" width="6" height="5" rx="2.5" fill="#333333"/>
</g>
<g id="NJ">
<rect id="NJ_2" x="1147" y="333" width="44" height="43" rx="5" fill="#333333"/>
</g>
</g>
<g id="NY">
<rect id="NY_2" x="1124" y="185" width="124" height="123" rx="5" fill="#333333"/>
</g>
<g id="what">
<g id="CT">
<rect id="CT_2" x="1268" y="304" width="17" height="17" rx="5" fill="#333333"/>
</g>
<g id="RI">
<rect id="RI_2" x="1317" y="261" width="5" height="5" rx="2.5" fill="#333333"/>
</g>
<g id="MA">
<rect id="MA_2" x="1287" y="183" width="47" height="47" rx="5" fill="#333333"/>
</g>
<g id="NH">
<rect id="NH_2" x="1327" y="144" width="7" height="7" rx="3.5" fill="#333333"/>
</g>
<g id="VT">
<rect id="VT_2" x="1269" y="124" width="1.9" height="1.9" rx="0.95" fill="#333333"/>
</g>
<g id="ME">
<rect id="ME_2" x="1327" y="96" width="7" height="7" rx="3.5" fill="#333333"/>
</g>
</g>
</g>
</g>
</svg>
