<svg width="1152" height="700" viewBox="0 0 1152 700" fill="none" xmlns="http://www.w3.org/2000/svg">
<g id="Grid Cartograph SVG">
<g id="CA">
<rect id="CA_2" x="3" y="362" width="253" height="253" fill="#333333"/>
</g>
<g id="HI">
<rect id="HI_2" y="693" width="7" height="7" fill="#333333"/>
</g>
<g id="OR">
<rect id="OR_2" x="227" y="317" width="27" height="26" fill="#333333"/>
</g>
<g id="WA">
<rect id="WA_2" x="206" y="249" width="47" height="47" fill="#333333"/>
</g>
<g id="AK">
<rect id="AK_2" x="195" y="210" width="4" height="4" fill="#333333"/>
</g>
<g id="ID">
<rect id="ID_2" x="279" y="282" width="5" height="5" fill="#333333"/>
</g>
<g id="NV">
<rect id="NV_2" x="279" y="343" width="21" height="21" fill="#333333"/>
</g>
<g id="UT">
<rect id="UT_2" x="338" y="343" width="16" height="15" fill="#333333"/>
</g>
<g id="AZ">
<rect id="AZ_2" x="307" y="399" width="38" height="38" fill="#333333"/>
</g>
<g id="CO">
<rect id="CO_2" x="378" y="343" width="33" height="33" fill="#333333"/>
</g>
<g id="WY">
<rect id="WY_2" x="382" y="327" width="1" height="2" fill="#333333"/>
</g>
<g id="MT">
<rect id="MT_2" x="378" y="287" width="5" height="4" fill="#333333"/>
</g>
<g id="NM">
<rect id="NM_2" x="378" y="399" width="11" height="10" fill="#333333"/>
</g>
<g id="TX">
<rect id="TX_2" x="423" y="399" width="138" height="137" fill="#333333"/>
</g>
<g id="OK">
<rect id="OK_2" x="423" y="367" width="16" height="16" fill="#333333"/>
</g>
<g id="KS">
<rect id="KS_2" x="423" y="331" width="13" height="12" fill="#333333"/>
</g>
<g id="NE">
<rect id="NE_2" x="423" y="292" width="9" height="11" fill="#333333"/>
</g>
<g id="SD">
<rect id="SD_2" x="423" y="270" width="4" height="3" fill="#333333"/>
</g>
<g id="ND">
<rect id="ND_2" x="423" y="249" width="2" height="1" fill="#333333"/>
</g>
<g id="MN">
<rect id="MN_2" x="561" y="242" width="28" height="28" fill="#333333"/>
</g>
<g id="IA">
<rect id="IA_2" x="561" y="287" width="12" height="12" fill="#333333"/>
</g>
<g id="MO">
<rect id="MO_2" x="561" y="310" width="28" height="28" fill="#333333"/>
</g>
<g id="AR">
<rect id="AR_2" x="561" y="348" width="11" height="10" fill="#333333"/>
</g>
<g id="LA">
<rect id="LA_2" x="561" y="369" width="19" height="19" fill="#333333"/>
</g>
<g id="MS">
<rect id="MS_2" x="640" y="388" width="10" height="11" fill="#333333"/>
</g>
<g id="IL">
<rect id="IL_2" x="610" y="292" width="70" height="70" fill="#333333"/>
</g>
<g id="WI">
<rect id="WI_2" x="610" y="242" width="23" height="22" fill="#333333"/>
</g>
<g id="TN">
<rect id="TN_2" x="707" y="369" width="28" height="28" fill="#333333"/>
</g>
<g id="KY">
<rect id="KY_2" x="707" y="341" width="18" height="17" fill="#333333"/>
</g>
<g id="IN">
<rect id="IN_2" x="707" y="297" width="35" height="35" fill="#333333"/>
</g>
<g id="OH">
<rect id="OH_2" x="770" y="252" width="63" height="63" fill="#333333"/>
</g>
<g id="PA">
<rect id="PA_2" x="821" y="162" width="66" height="64" fill="#333333"/>
</g>
<g id="NJ">
<rect id="NJ_2" x="925" y="141" width="44" height="43" fill="#333333"/>
</g>
<g id="NY">
<rect id="NY_2" x="925" y="5" width="124" height="123" fill="#333333"/>
</g>
<g id="CT">
<rect id="CT_2" x="1063" y="113" width="17" height="17" fill="#333333"/>
</g>
<g id="RI">
<rect id="RI_2" x="1093" y="113" width="5" height="5" fill="#333333"/>
</g>
<g id="MA">
<rect id="MA_2" x="1063" y="52" width="47" height="47" fill="#333333"/>
</g>
<g id="NH">
<rect id="NH_2" x="1103" y="31" width="7" height="7" fill="#333333"/>
</g>
<g id="VT">
<rect id="VT_2" x="1063" y="31" width="1.9" height="1.9" fill="#333333"/>
</g>
<g id="ME">
<rect id="ME_2" x="1103" y="5" width="7" height="7" fill="#333333"/>
</g>
<g id="MD">
<rect id="MD_2" x="909" y="226" width="33" height="34" fill="#333333"/>
</g>
<g id="DE">
<rect id="DE_2" x="925" y="212" width="6" height="5" fill="#333333"/>
</g>
<g id="WV">
<rect id="WV_2" x="849" y="317" width="8" height="7" fill="#333333"/>
</g>
<g id="MI">
<rect id="MI_2" x="707" y="228" width="49" height="47" fill="#333333"/>
</g>
<g id="AL">
<rect id="AL_2" x="707" y="418" width="16" height="15" fill="#333333"/>
</g>
<g id="GA">
<rect id="GA_2" x="777" y="367" width="58" height="58" fill="#333333"/>
</g>
<g id="FL">
<rect id="FL_2" x="777" y="466" width="115" height="116" fill="#333333"/>
</g>
<g id="SC">
<rect id="SC_2" x="875" y="419" width="21" height="21" fill="#333333"/>
</g>
<g id="NC">
<rect id="NC_2" x="875" y="353" width="50" height="51" fill="#333333"/>
</g>
<g id="VA">
<rect id="VA_2" x="875" y="301" width="42" height="42" fill="#333333"/>
</g>
<g id="DC">
<rect id="DC_2" x="896" y="279" width="4.5" height="4.5" fill="#333333"/>
</g>
</g>
</svg>
