<svg id="finalViz" width="1400" height="1050" fill="none" xmlns="http://www.w3.org/2000/svg">
        <g transform="translate(100,850) scale(0.10,-0.10)" fill="lightgrey" stroke="none">
            <path d="M1215 8038 c-6 -15 1 -229 9 -303 l6 -50 -14 59 c-15 62 -26 76 -65
                        76 -14 0 -32 6 -40 14 -9 8 -28 17 -42 19 -14 3 -74 37 -132 77 -76 51 -111
                        70 -125 66 -26 -9 -47 -60 -46 -111 1 -22 2 -67 2 -100 1 -103 1 -144 2 -167
                        1 -13 -1 -60 -4 -105 -4 -70 -2 -84 12 -92 9 -5 15 -11 12 -13 -3 -2 -17 -12
                        -32 -21 -19 -12 -28 -26 -28 -43 0 -35 -26 -134 -55 -208 -13 -34 -42 -110
                        -64 -171 -38 -105 -128 -325 -153 -372 -6 -12 -28 -40 -49 -62 -22 -22 -39
                        -50 -39 -63 0 -12 -14 -37 -32 -55 -31 -32 -32 -35 -22 -82 6 -27 7 -57 3 -67
                        -4 -11 -8 -83 -8 -161 -1 -140 -1 -143 -31 -190 -17 -26 -30 -51 -30 -55 0 -5
                        -22 -42 -50 -83 -46 -69 -50 -79 -50 -135 0 -39 10 -91 28 -149 28 -84 28 -89
                        12 -112 -27 -37 -38 -88 -38 -166 0 -69 2 -75 49 -145 46 -69 49 -77 49 -138
                        0 -60 3 -69 38 -112 20 -26 43 -47 51 -48 9 0 3 -10 -14 -25 -26 -25 -27 -29
                        -23 -105 l3 -79 55 -56 54 -55 -22 -23 c-24 -25 -52 -97 -52 -133 0 -14 14
                        -36 34 -54 20 -18 37 -45 40 -64 7 -38 79 -191 94 -200 6 -4 8 -22 5 -41 -4
                        -25 0 -41 15 -61 19 -28 19 -29 1 -72 -31 -71 -26 -94 27 -135 26 -20 63 -40
                        83 -43 20 -4 66 -22 103 -40 50 -25 69 -41 74 -59 9 -36 66 -82 113 -90 47 -8
                        66 -26 58 -57 -9 -32 10 -58 41 -58 32 0 82 -48 129 -125 28 -45 32 -62 40
                        -167 6 -64 15 -123 22 -131 7 -10 50 -19 124 -26 188 -19 419 -41 434 -41 7 0
                        17 -10 22 -23 5 -13 35 -39 68 -59 32 -19 171 -106 308 -193 138 -86 307 -193
                        377 -237 l128 -79 302 -40 c374 -50 433 -55 452 -40 8 7 17 34 21 62 4 27 11
                        49 15 49 29 0 354 -41 361 -46 5 -3 15 -20 23 -37 7 -18 84 -105 169 -193 175
                        -180 221 -250 211 -314 -8 -49 22 -108 78 -152 106 -85 282 -200 313 -205 28
                        -5 39 0 77 36 30 27 54 63 73 106 25 61 29 65 59 65 18 0 36 4 41 9 6 6 31 4
                        65 -5 30 -8 75 -14 100 -14 53 0 62 -5 78 -45 7 -16 41 -54 77 -83 54 -46 66
                        -62 79 -106 27 -91 85 -207 131 -260 25 -28 45 -58 45 -66 0 -27 48 -87 75
                        -94 22 -6 25 -12 25 -50 0 -23 8 -67 19 -97 23 -68 85 -191 103 -207 32 -26
                        243 -112 301 -122 34 -7 82 -24 107 -40 38 -23 53 -27 99 -24 30 2 58 9 63 16
                        16 26 8 72 -17 98 -16 17 -35 60 -52 119 -24 83 -25 97 -14 140 6 26 9 55 6
                        64 -4 9 0 26 9 39 9 12 19 43 22 69 5 34 11 49 25 52 10 3 28 21 39 40 13 23
                        31 37 49 40 20 4 32 15 39 35 7 20 19 32 38 36 40 10 54 24 54 53 0 20 3 22
                        17 14 22 -12 77 10 206 80 80 44 99 59 107 85 6 18 26 43 45 56 23 15 35 31
                        35 47 0 20 4 23 26 18 15 -2 61 4 103 14 42 11 124 30 182 43 l106 24 84 -19
                        c46 -10 108 -24 137 -31 63 -14 85 -5 90 36 3 23 7 25 30 20 15 -3 40 -21 55
                        -40 16 -19 38 -34 49 -34 11 0 36 -16 54 -35 33 -35 109 -75 143 -75 10 0 28
                        11 41 25 27 28 45 32 54 10 12 -33 90 -11 106 30 l9 24 50 -21 c28 -12 54 -31
                        60 -44 16 -37 44 -38 110 -4 50 25 61 35 61 55 0 25 -2 27 -138 112 l-24 15
                        24 25 c12 14 35 31 51 39 31 17 36 52 13 95 -13 26 -13 27 24 44 31 14 53 16
                        103 11 45 -5 67 -4 72 4 4 6 13 9 20 6 7 -2 21 1 32 9 16 12 21 11 40 -7 11
                        -11 38 -22 60 -25 32 -4 42 -1 62 21 15 16 35 26 52 26 14 0 32 6 38 14 11 13
                        135 16 171 4 111 -37 163 -50 185 -46 20 4 25 2 20 -9 -3 -9 8 -28 29 -47 19
                        -17 36 -42 38 -56 5 -42 44 -37 154 20 55 29 110 65 124 81 55 61 131 31 260
                        -101 55 -56 96 -90 115 -94 46 -11 90 -85 89 -151 -1 -28 -6 -61 -13 -72 -19
                        -36 -14 -121 9 -153 11 -16 28 -31 38 -34 11 -4 17 -17 18 -40 0 -25 10 -46
                        35 -73 19 -22 49 -60 66 -86 24 -35 39 -47 58 -47 16 0 25 -6 25 -15 0 -9 20
                        -37 44 -63 50 -55 66 -82 66 -114 0 -27 17 -48 39 -48 34 0 100 -43 130 -86
                        18 -25 44 -49 56 -54 13 -5 25 -19 27 -32 2 -13 11 -24 22 -26 36 -7 130 29
                        175 67 l44 38 -10 51 c-9 47 -8 53 15 83 24 30 25 35 14 86 -8 41 -8 67 0 103
                        10 43 9 54 -12 102 -12 29 -43 81 -67 115 -24 34 -55 95 -69 136 -18 53 -32
                        78 -49 87 -28 15 -41 61 -31 118 5 34 0 45 -42 104 -26 37 -61 73 -79 82 -18
                        9 -33 23 -33 31 0 9 -25 46 -55 82 -51 62 -55 71 -54 115 2 37 -3 54 -19 71
                        -12 13 -25 38 -28 57 -4 19 -13 44 -20 55 -21 34 -38 214 -24 266 13 46 51
                        127 80 169 9 14 20 38 24 54 13 54 65 114 160 185 71 53 97 79 105 104 7 19
                        20 42 31 52 10 9 30 46 44 81 52 130 96 176 178 188 57 8 101 53 113 112 13
                        72 109 180 185 210 25 10 60 29 78 42 27 21 32 30 32 68 0 33 -5 46 -20 54
                        -11 6 -25 8 -30 5 -6 -3 -10 5 -10 19 0 20 5 26 21 26 32 0 85 36 108 74 29
                        46 29 138 1 166 -16 16 -25 18 -45 10 -48 -18 -66 -3 -21 18 35 16 43 63 18
                        110 -11 21 -23 52 -26 70 -10 42 -58 82 -101 82 -25 0 -34 5 -39 22 -3 13 -1
                        27 4 32 15 15 12 58 -5 80 -8 11 -15 32 -15 47 0 42 -18 82 -46 105 -19 15
                        -24 27 -20 42 6 18 11 19 40 10 24 -8 35 -18 42 -42 6 -21 16 -32 32 -34 20
                        -3 23 -8 17 -25 -4 -12 -9 -49 -12 -82 -4 -49 -2 -65 14 -84 14 -17 25 -22 40
                        -17 29 9 69 90 89 178 9 40 25 87 35 104 14 24 19 51 19 108 0 79 -8 105 -43
                        144 -20 22 -20 22 -1 22 31 0 78 57 123 147 l41 83 0 137 0 138 68 41 c37 23
                        95 54 129 69 51 22 68 37 94 76 34 53 35 79 2 93 -18 9 -12 14 59 49 48 23 83
                        47 89 61 8 17 17 21 38 18 23 -3 34 3 60 37 28 35 36 40 62 34 18 -3 35 0 45
                        8 9 8 35 23 58 34 39 19 41 23 44 68 4 61 -39 147 -73 147 -39 0 -75 -37 -75
                        -78 l0 -36 -31 42 c-17 23 -39 42 -48 42 -28 0 -30 9 -13 56 15 40 15 46 -1
                        79 -19 39 -18 47 19 173 14 45 23 95 22 110 -3 23 1 27 25 30 16 2 34 14 43
                        28 9 13 25 24 36 24 30 0 74 53 87 105 9 37 17 48 41 56 16 6 40 25 54 43 19
                        26 31 32 50 29 17 -4 31 2 47 21 12 14 39 37 60 52 21 14 48 40 60 58 12 18
                        31 37 43 42 28 12 32 48 8 81 -11 16 -23 38 -26 50 -5 16 -21 27 -54 36 -38
                        11 -50 21 -64 48 -9 19 -32 43 -51 53 -36 20 -39 28 -113 271 -14 50 -33 97
                        -41 106 -19 23 -128 89 -145 89 -7 0 -39 -16 -71 -35 -32 -19 -60 -35 -62 -35
                        -2 0 -5 12 -7 28 -2 22 -9 28 -34 30 -54 5 -71 -20 -118 -179 l-44 -146 4
                        -136 c3 -126 2 -137 -18 -163 -13 -16 -22 -40 -21 -60 1 -20 -3 -31 -11 -29
                        -18 6 -77 -28 -99 -56 -10 -15 -22 -41 -26 -60 l-7 -33 -124 -28 c-151 -34
                        -390 -87 -445 -98 -22 -5 -50 -12 -61 -17 -33 -12 -200 -196 -208 -228 -4 -15
                        -27 -51 -52 -79 -49 -57 -57 -96 -25 -130 10 -12 22 -31 26 -44 17 -56 -181
                        -181 -242 -153 -13 6 -40 11 -59 11 -37 0 -214 -39 -227 -50 -5 -4 -15 -33
                        -23 -64 -15 -57 -15 -58 11 -92 16 -21 24 -41 20 -53 -9 -29 -140 -154 -187
                        -178 -24 -12 -52 -32 -63 -46 -27 -32 -103 -83 -168 -112 -31 -13 -65 -39 -84
                        -62 -27 -34 -36 -39 -61 -35 -23 3 -40 -3 -69 -26 -34 -27 -42 -30 -83 -23
                        -49 8 -150 49 -150 61 0 4 9 19 20 33 11 14 20 38 20 55 0 16 9 37 20 47 11
                        10 20 28 20 41 0 21 7 30 43 60 8 7 19 45 26 86 l13 74 -42 125 c-24 68 -50
                        132 -58 141 -8 9 -39 23 -69 29 l-56 13 -31 -35 c-17 -19 -43 -50 -58 -69 -15
                        -19 -30 -31 -34 -27 -4 4 8 24 28 45 20 20 41 47 47 59 16 32 13 155 -5 209
                        -12 37 -13 52 -4 74 7 16 9 37 6 47 -8 24 -80 68 -136 83 -25 6 -54 20 -65 30
                        -11 10 -44 23 -72 31 -29 7 -53 16 -53 20 0 4 33 9 73 11 90 5 151 32 155 69
                        4 32 -4 38 -108 79 -55 22 -102 34 -135 35 l-50 0 -5 39 c-7 55 -28 65 -88 43
                        -27 -9 -85 -24 -128 -32 -57 -11 -92 -24 -129 -50 -47 -32 -54 -34 -110 -28
                        -44 4 -70 13 -95 32 -47 36 -84 51 -125 51 -49 0 -46 23 10 77 70 67 60 96
                        -38 107 -54 7 -58 6 -80 -20 -59 -71 -168 -158 -225 -179 -26 -10 -58 -27 -72
                        -39 -52 -45 -58 -48 -103 -41 -36 6 -44 10 -40 24 7 27 -24 51 -63 51 -19 0
                        -61 -14 -94 -30 -33 -17 -60 -28 -60 -26 0 8 72 79 122 120 26 21 110 79 185
                        130 116 76 138 95 138 116 0 39 -44 55 -145 53 -58 -2 -95 3 -117 13 -30 13
                        -37 13 -104 -11 -79 -27 -96 -26 -145 11 -17 13 -38 24 -46 24 -9 0 -31 15
                        -50 34 -29 29 -43 35 -118 46 -57 8 -96 9 -120 3 -29 -8 -45 -6 -89 14 -29 12
                        -62 23 -72 23 -14 0 -20 14 -30 76 -11 72 -14 77 -45 90 -65 27 -108 10 -116
                        -46 -3 -24 -7 -25 -93 -32 -141 -11 -367 -10 -815 1 -510 14 -627 23 -1305
                        100 -311 36 -335 39 -575 76 -129 19 -262 40 -295 45 -33 5 -91 14 -130 20
                        -497 74 -646 100 -865 150 -140 32 -291 66 -335 75 -100 22 -160 35 -205 45
                        -19 4 -78 17 -130 29 -186 41 -257 59 -441 110 -192 53 -236 60 -244 39z m270
                        -84 c110 -30 218 -59 240 -64 63 -15 578 -129 855 -190 19 -4 85 -19 145 -33
                        61 -14 250 -46 420 -71 312 -47 457 -68 573 -86 34 -6 91 -14 127 -20 156 -24
                        202 -31 230 -36 17 -3 66 -9 110 -14 44 -5 242 -27 440 -49 503 -56 539 -59
                        1105 -77 459 -15 788 -14 907 2 39 6 42 8 48 45 6 34 10 39 35 39 38 0 47 -14
                        55 -90 10 -99 11 -102 49 -94 25 4 46 -1 83 -19 44 -23 53 -24 97 -14 36 8 66
                        8 119 -1 62 -11 75 -17 100 -47 16 -20 38 -35 50 -35 11 0 30 -8 41 -18 12
                        -10 37 -23 58 -30 32 -11 43 -10 104 13 67 25 70 25 107 9 31 -14 47 -16 94
                        -7 55 10 121 0 126 -19 1 -4 -52 -42 -118 -84 -130 -84 -262 -190 -326 -263
                        l-40 -45 34 -12 c33 -12 40 -10 111 27 50 27 83 38 96 34 22 -7 26 -20 10 -30
                        -6 -3 -10 -19 -10 -35 0 -28 1 -28 33 -19 17 5 53 7 79 4 43 -6 49 -4 85 28
                        21 19 68 48 104 65 37 16 85 48 107 70 22 22 48 43 59 46 10 3 27 22 37 41 16
                        30 24 35 55 35 60 0 68 -14 27 -45 -26 -20 -40 -41 -51 -78 -8 -28 -15 -53
                        -15 -57 0 -3 18 -4 40 -2 47 5 109 -18 160 -58 32 -25 47 -29 107 -31 65 -3
                        74 -1 124 33 38 25 74 39 124 47 39 7 87 19 108 27 51 19 57 18 57 -11 0 -13
                        5 -35 11 -49 11 -23 16 -24 59 -19 38 4 64 -1 134 -27 48 -18 89 -37 92 -41 9
                        -16 -69 -39 -132 -39 -53 0 -65 -3 -78 -22 -14 -20 -17 -20 -33 -5 -10 8 -41
                        19 -69 22 -55 8 -93 -5 -128 -44 -13 -14 -31 -21 -57 -21 -33 0 -41 -5 -54
                        -30 -18 -35 -52 -41 -57 -9 l-3 21 -27 -21 c-33 -26 -38 -26 -38 0 0 35 -24
                        15 -31 -27 -4 -21 -19 -62 -33 -90 -14 -29 -26 -59 -26 -67 0 -9 -22 -45 -49
                        -81 -49 -64 -71 -119 -53 -130 6 -3 18 7 28 22 9 15 36 45 58 67 23 23 55 59
                        73 80 30 38 32 39 32 15 1 -14 -15 -61 -34 -105 -20 -44 -38 -105 -42 -135 -3
                        -30 -15 -67 -25 -82 -15 -22 -19 -42 -17 -95 1 -43 -3 -81 -13 -103 -13 -32
                        -13 -44 8 -145 13 -60 23 -136 23 -167 1 -48 5 -59 26 -76 14 -11 32 -43 41
                        -70 14 -44 22 -53 55 -66 37 -15 40 -15 82 10 87 53 125 142 143 330 6 64 4
                        77 -24 140 -47 108 -65 189 -57 259 4 33 10 90 13 127 7 66 28 109 65 132 13
                        8 20 6 30 -8 13 -18 15 -18 45 4 27 20 32 30 32 65 0 31 6 47 25 65 17 16 23
                        30 19 45 -6 25 51 104 76 104 32 1 114 -30 126 -48 8 -11 31 -21 58 -24 44 -6
                        126 -51 126 -68 0 -4 -4 -11 -10 -14 -15 -9 -12 -66 5 -95 9 -16 14 -55 15
                        -109 l0 -85 -44 -40 c-38 -36 -43 -45 -38 -74 5 -35 46 -67 60 -46 34 51 106
                        134 115 134 16 0 87 -20 87 -24 0 -2 18 -57 41 -121 36 -105 40 -124 34 -174
                        -8 -65 -20 -91 -40 -91 -9 0 -19 -17 -26 -45 -6 -24 -17 -50 -25 -56 -8 -6
                        -14 -24 -14 -40 0 -15 -13 -48 -30 -72 -39 -59 -40 -87 -1 -87 16 0 50 -10 77
                        -22 27 -12 71 -25 99 -28 45 -6 53 -4 95 25 38 28 48 31 69 22 19 -9 26 -8 37
                        7 32 45 86 96 101 96 19 0 154 83 179 111 10 12 42 36 69 54 28 17 82 64 121
                        102 86 85 97 117 58 168 -23 30 -24 37 -14 74 12 45 16 47 164 78 66 13 71 13
                        97 -6 l27 -20 77 31 c53 22 93 47 131 82 50 48 54 55 54 99 0 26 -4 47 -10 47
                        -5 0 -17 11 -26 25 -16 25 -16 26 29 74 25 27 51 67 57 89 9 29 37 64 99 126
                        l87 87 315 70 c173 38 322 72 332 75 14 4 17 12 13 30 -13 49 56 124 98 108
                        28 -11 48 16 41 53 -4 25 0 40 17 64 23 31 25 52 20 174 -4 95 6 168 42 285
                        35 115 57 157 77 145 4 -3 5 -13 2 -24 -3 -12 3 -24 17 -34 21 -15 26 -13 85
                        24 34 21 67 39 72 39 5 0 37 -17 69 -38 55 -36 60 -43 73 -93 8 -30 31 -109
                        52 -176 36 -111 42 -123 74 -142 19 -11 43 -37 52 -56 14 -29 26 -38 61 -48
                        34 -9 46 -18 57 -43 7 -17 18 -35 24 -38 16 -10 14 -36 -3 -36 -8 0 -25 -15
                        -37 -32 -13 -18 -32 -40 -44 -48 -11 -8 -37 -30 -57 -48 -27 -24 -43 -32 -57
                        -27 -15 5 -31 -5 -64 -39 -24 -25 -51 -46 -59 -46 -11 0 -26 -24 -43 -71 -15
                        -39 -32 -72 -39 -74 -6 -2 -23 -6 -38 -9 -15 -3 -30 -15 -33 -27 -5 -15 -13
                        -19 -29 -15 -34 8 -68 -31 -60 -70 3 -17 -4 -63 -19 -114 -31 -107 -34 -135
                        -18 -182 11 -33 10 -45 -8 -92 -22 -59 -18 -66 34 -66 13 0 30 -10 40 -26 29
                        -45 54 -64 85 -64 24 0 30 4 30 23 0 12 -5 29 -10 37 -9 14 13 50 30 50 13 0
                        40 -71 40 -105 0 -30 -4 -36 -27 -41 -16 -4 -36 -13 -45 -22 -14 -11 -21 -12
                        -32 -3 -22 18 -59 -2 -90 -50 l-29 -43 -24 28 c-30 35 -53 28 -53 -17 0 -20
                        -7 -40 -17 -49 -29 -26 -94 -54 -153 -68 -91 -21 -161 -59 -222 -122 -57 -57
                        -69 -78 -47 -78 15 0 134 57 190 92 41 25 119 40 119 22 0 -23 -62 -79 -114
                        -103 -34 -16 -88 -45 -120 -65 -33 -20 -72 -36 -86 -36 -25 0 -50 -16 -50 -32
                        0 -4 8 -8 18 -8 36 0 42 -21 42 -133 0 -109 0 -111 -43 -201 -24 -50 -54 -100
                        -66 -111 -23 -20 -23 -20 -40 1 -9 12 -33 29 -52 39 -19 10 -50 35 -70 57 -32
                        34 -37 36 -42 20 -6 -25 85 -169 116 -183 12 -5 32 -25 45 -43 29 -43 31 -158
                        4 -214 -10 -20 -24 -64 -32 -97 -7 -33 -24 -82 -39 -110 l-26 -50 -3 49 c-2
                        26 2 62 7 79 6 16 11 43 11 59 0 28 -2 29 -30 23 -29 -6 -30 -5 -30 29 0 22
                        -5 36 -12 36 -7 0 -30 5 -50 11 -29 7 -38 15 -38 31 0 12 -10 61 -21 109 -21
                        83 -21 90 -5 128 19 50 21 94 4 89 -7 -3 -28 -24 -45 -47 -30 -39 -33 -49 -33
                        -115 0 -53 7 -89 25 -136 34 -88 33 -100 -9 -100 -66 0 -49 -41 22 -55 49 -9
                        72 -37 72 -88 0 -23 7 -53 16 -66 14 -19 14 -27 4 -46 -7 -13 -10 -35 -6 -49
                        5 -19 3 -26 -9 -26 -22 0 -18 -37 5 -50 14 -7 26 -8 39 0 50 26 111 0 111 -49
                        0 -14 9 -37 20 -51 26 -33 26 -77 1 -85 -10 -3 -47 -24 -81 -46 -48 -31 -60
                        -43 -51 -52 9 -9 22 -8 56 4 41 15 45 15 63 -4 20 -19 20 -19 41 2 30 30 41
                        19 41 -41 0 -64 -27 -105 -76 -114 -27 -5 -38 -2 -48 11 -16 22 -46 14 -46
                        -12 0 -10 7 -26 15 -36 22 -30 0 -76 -47 -97 -29 -13 -36 -20 -26 -26 20 -13
                        69 -5 105 17 34 21 49 13 38 -21 -4 -12 -38 -35 -88 -59 -73 -34 -89 -47 -139
                        -112 -38 -48 -61 -88 -68 -120 -14 -59 -36 -79 -96 -90 -81 -15 -139 -76 -187
                        -193 -12 -28 -36 -73 -54 -100 -18 -26 -33 -54 -33 -60 0 -7 -41 -43 -91 -81
                        -92 -69 -153 -138 -165 -185 -4 -14 -21 -50 -39 -80 -18 -30 -45 -88 -59 -129
                        -26 -72 -26 -77 -16 -174 6 -55 20 -122 31 -149 10 -27 19 -57 19 -67 0 -9 11
                        -28 25 -41 21 -19 25 -33 25 -76 0 -49 4 -58 45 -106 25 -29 53 -70 61 -90 10
                        -23 25 -39 40 -42 13 -4 42 -31 65 -61 39 -52 41 -58 43 -131 2 -72 3 -77 34
                        -102 22 -19 39 -47 53 -91 12 -35 41 -92 64 -125 23 -34 53 -81 65 -106 21
                        -41 22 -50 12 -98 -8 -39 -8 -66 0 -102 10 -43 9 -51 -11 -79 -19 -26 -21 -39
                        -16 -84 6 -49 5 -53 -23 -74 -36 -26 -98 -53 -123 -53 -14 0 -19 7 -19 25 0
                        20 -5 25 -23 25 -16 0 -33 14 -56 45 -38 52 -74 80 -119 90 -18 4 -36 14 -39
                        23 -18 57 -32 82 -69 122 -26 27 -44 57 -46 75 -3 27 -7 30 -40 33 -31 3 -41
                        10 -59 40 -13 20 -38 54 -56 75 -36 41 -40 58 -19 76 21 18 30 69 16 86 -16
                        19 -40 19 -40 1 0 -7 -6 -19 -13 -25 -11 -8 -18 -7 -29 7 -26 28 -31 76 -13
                        118 29 70 24 130 -19 207 -32 58 -42 67 -66 67 -21 0 -47 20 -116 88 -106 105
                        -165 142 -226 142 -38 0 -49 -5 -80 -37 -32 -35 -188 -123 -216 -123 -7 0 -12
                        11 -12 25 0 17 -9 29 -30 40 -33 17 -34 19 -20 45 12 23 -12 33 -80 36 -65 2
                        -144 28 -148 48 -3 14 -10 16 -35 9 -18 -4 -62 -7 -99 -5 -59 2 -69 0 -78 -18
                        -7 -13 -21 -20 -39 -20 -15 0 -36 -9 -46 -20 -21 -23 -67 -26 -85 -5 -6 8 -18
                        34 -25 57 l-13 43 -21 -47 c-22 -48 -34 -58 -46 -37 -5 7 -13 5 -25 -6 -14
                        -12 -29 -15 -68 -9 -54 7 -87 -2 -189 -54 l-52 -26 -73 17 c-40 10 -84 17 -98
                        17 -32 0 -54 -33 -40 -60 9 -17 18 -18 79 -13 67 6 69 5 82 -20 l14 -26 55 34
                        c30 19 58 35 61 35 3 0 10 -10 16 -22 8 -18 1 -29 -49 -78 -32 -31 -58 -60
                        -58 -66 0 -5 38 -32 85 -59 46 -28 85 -53 85 -57 0 -8 -73 -48 -88 -48 -6 0
                        -12 9 -15 20 -3 13 -26 29 -60 44 -30 14 -57 32 -60 40 -4 9 -15 16 -26 16
                        -15 0 -22 -10 -28 -42 -9 -47 -38 -64 -56 -33 -12 22 -76 12 -95 -16 -16 -23
                        -25 -23 -77 -4 -24 10 -50 30 -64 50 -16 24 -31 35 -48 35 -22 0 -73 42 -73
                        61 0 5 -8 9 -18 9 -10 0 -27 7 -40 15 -31 22 -62 4 -62 -35 0 -37 1 -37 -164
                        -1 -86 19 -138 26 -155 21 -85 -26 -343 -81 -356 -77 -8 4 -15 16 -15 27 0 22
                        -3 23 -37 14 -29 -8 -37 -35 -21 -68 11 -25 9 -29 -16 -50 -16 -12 -36 -37
                        -45 -56 -13 -27 -38 -45 -139 -98 -112 -58 -124 -63 -140 -49 -15 14 -21 14
                        -51 1 -33 -14 -33 -15 -17 -38 18 -28 15 -31 -37 -41 -32 -6 -39 -12 -44 -37
                        -5 -23 -10 -29 -25 -24 -30 7 -48 -3 -48 -28 0 -33 -27 -64 -58 -68 -26 -3
                        -27 -5 -27 -60 0 -45 -5 -61 -23 -81 -20 -21 -22 -28 -11 -45 10 -16 10 -28
                        -1 -61 -12 -38 -11 -50 15 -144 17 -64 37 -112 51 -128 13 -14 24 -35 24 -47
                        0 -20 -3 -21 -20 -12 -14 7 -25 7 -38 -1 -16 -10 -25 -8 -53 14 -21 16 -62 31
                        -110 41 -42 9 -125 38 -185 65 l-109 49 -37 68 c-41 75 -68 155 -68 202 0 52
                        -19 92 -45 92 -23 0 -65 55 -65 84 0 8 -21 37 -46 65 -32 36 -58 81 -89 158
                        -25 59 -45 118 -45 129 0 12 -12 29 -27 40 -55 35 -123 107 -123 128 0 32 -53
                        54 -145 60 -67 4 -83 8 -98 27 l-18 22 -15 -21 c-10 -14 -27 -22 -55 -24 -40
                        -3 -41 -4 -71 -73 -35 -81 -81 -135 -116 -135 -20 0 -108 58 -300 197 -47 35
                        -66 77 -58 131 5 35 2 49 -14 69 -11 14 -20 34 -20 45 0 12 -70 92 -172 199
                        -114 118 -174 189 -176 205 -5 40 -50 60 -170 73 -59 7 -134 16 -168 22 -33 5
                        -74 9 -91 9 -30 0 -31 -2 -42 -61 -6 -34 -12 -63 -13 -64 -4 -3 -292 33 -528
                        66 -36 5 -92 12 -125 15 -56 6 -79 19 -315 167 -632 395 -610 381 -610 404 0
                        26 -6 27 -190 43 -69 6 -170 15 -225 20 -55 6 -116 11 -135 13 l-35 2 -10 120
                        c-9 112 -12 124 -45 175 -66 105 -101 140 -138 140 -31 0 -34 2 -28 25 4 15 0
                        37 -8 53 -12 23 -26 31 -69 41 -58 13 -76 27 -96 77 -10 25 -29 39 -99 73 -48
                        22 -97 41 -109 41 -12 0 -39 14 -60 32 -21 18 -39 33 -41 34 -1 1 8 30 21 66
                        24 63 24 65 6 89 -15 18 -17 34 -13 66 5 35 3 44 -11 49 -20 8 -95 162 -95
                        194 0 11 -17 39 -39 63 -38 42 -38 42 -24 82 7 21 22 49 33 60 35 37 26 75
                        -30 130 l-50 49 0 73 c0 69 1 73 23 73 12 0 33 -7 46 -16 22 -16 23 -16 18 2
                        -3 11 -9 37 -12 59 -13 78 -14 80 -40 55 l-22 -21 -32 36 c-28 33 -31 42 -31
                        104 0 62 -3 72 -33 112 -18 24 -43 60 -54 81 -19 33 -20 38 -6 57 13 20 13 24
                        -1 46 -14 21 -14 28 -1 65 8 23 23 54 34 69 l20 27 -35 109 c-46 147 -45 158
                        21 255 30 44 55 85 55 91 0 5 11 27 25 47 24 35 25 44 25 175 0 98 4 148 15
                        173 10 25 12 42 5 60 -17 43 -11 69 20 99 17 16 30 39 30 52 0 13 16 40 38 62
                        39 41 130 240 211 466 22 61 51 140 64 176 13 37 30 96 37 132 10 48 18 67 31
                        70 10 3 24 17 30 31 10 22 9 29 -6 46 -21 24 -13 70 13 70 14 0 12 4 -8 19
                        -23 19 -24 21 -11 56 11 31 11 42 0 62 -10 19 -11 35 -2 77 8 38 8 66 1 95
                        -10 41 -4 126 11 135 4 3 54 -26 112 -64 57 -39 111 -70 120 -70 9 0 28 -9 42
                        -20 14 -11 37 -20 51 -20 14 0 26 -3 26 -7 1 -5 5 -28 10 -53 6 -35 4 -52 -9
                        -80 -10 -19 -21 -50 -24 -67 -6 -28 -4 -33 12 -33 13 0 34 25 67 81 l47 81
                        -15 81 c-14 71 -14 85 -1 116 13 31 13 35 -1 43 -10 5 -16 22 -16 43 0 29 3
                        33 23 28 12 -3 112 -30 222 -59z m7339 -1450 c21 -21 21 -21 -20 -66 -22 -25
                        -34 -47 -32 -62 1 -12 -7 -35 -20 -50 -12 -16 -22 -43 -22 -61 0 -41 -5 -45
                        -39 -32 -61 23 -119 -59 -134 -192 -20 -164 -9 -247 49 -380 55 -125 5 -349
                        -93 -416 -47 -32 -71 -22 -95 41 -10 27 -28 56 -38 66 -14 11 -20 29 -20 60
                        -1 23 -11 95 -25 158 -21 103 -22 117 -9 143 10 18 14 52 13 96 -2 55 2 76 20
                        104 14 23 21 51 21 85 0 28 4 53 9 56 18 11 63 147 64 194 2 42 0 47 -22 50
                        -13 2 -28 -1 -34 -7 -25 -25 -25 -8 0 43 27 56 48 70 90 60 31 -8 81 13 88 37
                        4 11 20 21 43 25 20 4 46 14 57 24 49 42 120 54 149 24z m2491 -1655 c11 -17
                        -1 -21 -15 -4 -8 9 -8 15 -2 15 6 0 14 -5 17 -11z"></path>
            <path d="M1230 2197 c-80 -36 -98 -48 -116 -80 -32 -58 -35 -59 -94 -45 l-53
                        12 -28 -33 c-39 -48 -41 -65 -8 -109 19 -27 31 -56 35 -94 l6 -55 -58 -7
                        c-151 -18 -173 -23 -188 -35 -21 -18 -20 -34 5 -84 18 -34 20 -46 11 -71 -13
                        -33 -7 -49 36 -89 33 -32 147 -77 193 -77 37 0 30 -16 -10 -25 -16 -3 -37 -15
                        -46 -25 -17 -19 -18 -19 -43 0 -34 27 -53 25 -88 -11 -16 -17 -57 -47 -92 -66
                        -35 -20 -66 -42 -69 -50 -3 -8 1 -40 10 -71 10 -37 12 -62 6 -73 -17 -32 -9
                        -75 20 -117 23 -31 38 -41 69 -47 22 -3 48 -13 59 -20 15 -12 16 -17 6 -34
                        -20 -32 -16 -85 7 -106 14 -13 28 -16 54 -11 33 6 36 4 66 -39 22 -33 38 -45
                        55 -45 30 0 31 -6 7 -43 -11 -18 -50 -46 -107 -76 -50 -26 -107 -57 -126 -68
                        -19 -12 -44 -20 -55 -17 -10 3 -46 -4 -78 -16 -33 -11 -74 -20 -93 -20 -47 0
                        -123 -52 -123 -84 0 -43 21 -49 133 -42 56 4 116 11 132 16 17 6 82 26 145 44
                        231 69 275 88 346 146 163 134 184 154 184 181 0 23 54 89 73 89 4 0 7 -17 7
                        -39 0 -61 18 -69 103 -47 111 28 131 40 163 89 25 40 34 46 63 47 27 0 47 -11
                        93 -51 58 -51 98 -69 152 -69 37 0 145 -39 243 -88 l78 -40 35 -82 c26 -60 53
                        -101 104 -158 93 -102 234 -231 262 -238 20 -5 151 44 182 68 8 7 12 40 12 98
                        0 102 2 100 -116 154 l-81 38 -112 153 c-61 84 -118 155 -126 159 -18 7 -39 0
                        -89 -32 l-40 -25 -30 39 c-62 79 -71 84 -131 84 l-55 0 0 534 0 535 -67 75
                        c-36 42 -74 76 -84 76 -10 0 -30 -7 -46 -16 -27 -16 -30 -16 -102 21 -68 34
                        -79 36 -128 30 -51 -6 -53 -6 -53 18 0 14 -6 29 -12 34 -22 17 -158 65 -181
                        64 -12 -1 -33 -2 -47 -3 -14 -1 -38 1 -55 5 -23 5 -52 -4 -125 -36z m146 -8
                        c34 -9 48 -9 59 1 11 9 31 5 99 -20 83 -31 85 -33 79 -61 -5 -24 -2 -29 21
                        -35 15 -3 45 -2 68 4 38 10 46 8 124 -31 l84 -42 36 20 c36 19 36 19 52 -2 10
                        -11 34 -41 54 -65 l38 -45 2 -544 3 -544 65 -3 65 -2 57 -63 56 -62 62 34 c59
                        32 62 32 75 15 8 -11 58 -80 112 -154 l98 -135 93 -44 92 -45 0 -75 0 -76 -68
                        -28 c-37 -15 -72 -27 -79 -27 -6 0 -75 62 -152 138 -133 131 -142 141 -184
                        234 l-45 97 -94 47 c-113 57 -219 94 -268 94 -40 0 -66 15 -125 71 -36 34 -47
                        38 -112 45 l-73 7 0 -29 c-1 -49 -37 -80 -121 -103 -98 -27 -99 -27 -99 12 0
                        23 12 50 40 87 22 29 38 55 35 58 -7 7 -76 -38 -133 -87 -30 -25 -68 -58 -85
                        -73 -29 -24 -31 -28 -15 -40 15 -12 7 -21 -74 -88 -148 -123 -154 -127 -286
                        -169 -243 -78 -304 -93 -402 -97 l-95 -5 30 25 c19 16 42 26 62 26 18 0 56 9
                        85 20 29 11 67 20 84 20 19 0 84 27 168 71 135 70 138 72 161 123 13 28 33 66
                        45 83 l22 33 -49 -15 c-69 -21 -75 -19 -105 31 -28 45 -28 45 -72 39 -38 -6
                        -44 -4 -48 13 -3 12 1 30 9 42 24 34 0 100 -36 100 -83 0 -136 59 -113 124 10
                        27 9 41 -3 76 -8 23 -15 48 -15 55 0 7 24 28 53 45 28 18 67 46 84 63 l33 31
                        29 -29 30 -28 36 32 c25 21 46 31 69 31 33 0 34 0 41 57 4 31 9 63 13 72 4 11
                        -3 9 -30 -7 -19 -12 -43 -22 -53 -22 -39 0 -124 34 -160 64 -34 29 -36 33 -24
                        58 10 23 9 35 -9 78 -24 58 -30 53 83 70 44 6 88 13 98 15 14 3 17 -5 17 -45
                        0 -50 10 -60 67 -60 28 0 30 5 39 68 l6 51 -36 17 c-20 10 -36 20 -36 23 -1
                        52 -24 129 -46 152 -25 26 -25 28 -9 53 19 28 33 31 83 17 45 -13 79 3 103 52
                        17 32 33 45 102 77 45 21 83 39 85 39 2 1 23 -4 48 -10z m-341 -464 c0 -16 -6
                        -30 -12 -32 -9 -3 -13 7 -13 32 0 25 4 35 13 33 6 -3 12 -17 12 -33z"></path>
            <path d="M3320 1204 c-57 -25 -70 -42 -70 -94 0 -25 5 -51 12 -58 17 -17 162
                        -16 176 1 5 6 16 32 23 56 l13 44 -37 33 c-40 37 -64 41 -117 18z m94 -43 c14
                        -16 16 -26 9 -48 -9 -26 -14 -28 -71 -31 l-62 -3 0 34 c0 28 5 36 33 50 43 21
                        70 21 91 -2z"></path>
            <path d="M3733 1037 l-36 -33 11 -65 c15 -83 34 -99 113 -99 74 0 99 20 99 82
                        0 36 -6 47 -53 95 -32 31 -63 53 -76 53 -12 0 -38 -15 -58 -33z m105 -46 c35
                        -32 42 -45 42 -75 l0 -36 -59 0 -60 0 -12 56 c-12 55 -12 57 10 75 13 11 26
                        19 30 19 3 -1 25 -18 49 -39z"></path>
            <path d="M3979 893 c-14 -11 -19 -26 -19 -59 0 -40 3 -46 28 -57 18 -8 26 -18
                        24 -30 -2 -10 3 -29 12 -42 9 -13 16 -34 16 -45 0 -22 35 -41 60 -32 29 11 72
                        47 80 67 7 19 9 18 21 -8 17 -37 45 -42 99 -19 61 26 94 64 86 96 -9 35 -69
                        70 -108 62 -26 -5 -39 -1 -68 22 -46 38 -199 67 -231 45z m115 -43 c32 -5 61
                        -11 63 -13 6 -6 -19 -57 -28 -57 -4 0 -9 7 -13 15 -4 11 -21 15 -61 15 -52 0
                        -55 1 -55 25 0 29 6 30 94 15z m178 -67 c37 7 87 -21 74 -42 -8 -12 -79 -51
                        -95 -51 -5 0 -14 14 -20 30 -7 20 -17 30 -30 30 -17 0 -21 6 -21 35 l0 36 29
                        -22 c22 -16 38 -20 63 -16z m-158 -45 l26 -33 -21 -17 c-29 -24 -31 -23 -51
                        19 -13 27 -14 40 -6 50 16 19 24 16 52 -19z"></path>
            <path d="M4372 608 c-7 -7 -12 -23 -12 -36 0 -13 -12 -43 -26 -68 -29 -50 -29
                        -66 5 -206 22 -90 25 -96 57 -109 64 -24 71 -23 111 20 36 39 101 69 186 86
                        55 11 61 108 8 126 -15 6 -34 22 -42 38 -25 49 -104 111 -175 137 -75 27 -95
                        29 -112 12z m93 -48 c70 -24 140 -79 163 -128 11 -23 26 -38 42 -42 18 -4 25
                        -13 25 -29 0 -20 -8 -26 -50 -37 -82 -21 -141 -50 -163 -82 -17 -23 -27 -28
                        -46 -25 -35 7 -41 17 -65 115 -26 109 -26 114 4 163 13 22 25 50 25 63 0 27
                        -6 26 65 2z"></path>
        </g>
        <g id="grid-cartograph-svg">
            <g id="grid-cartograph-svg">
                <g id="Group 1">
                    <g id="HI" class="state-tile-ctr">
                        <rect id="HI_2" x="489" y="792" width="7" height="7" rx="3.5" fill="darkgrey" class="green-rect rect-stroke" stroke="black"></rect>
                    <text fill="black" y="795.5" x="506" font-size="20px">HI</text><text fill="black" y="810.5" x="506" font-size="12px">34k</text></g>
                    <g id="FL" class="state-tile-ctr">
                        <rect id="FL_2" x="1052" y="750" width="115" height="116" rx="5" fill="white" class="red-rect rect-stroke" stroke="black"></rect>
                    <text fill="black" y="770" x="1057" font-size="20px">FL</text><text fill="black" y="808.4835371589841" x="1057" font-size="38.48353715898401px">545k</text></g>
                    <g id="TX" class="state-tile-ctr">
                        <rect id="TX_2" x="579" y="643" width="138" height="137" rx="5" fill="white" class="red-rect rect-stroke" stroke="black"></rect>
                    <text fill="black" y="663" x="584" font-size="20px">TX</text><text fill="black" y="708.0084666039511" x="584" font-size="45.00846660395108px">647k</text></g>
                    <g id="west coast">
                        <g id="CA" class="state-tile-ctr">
                            <rect id="CA_2" x="43" y="383" width="253" height="253" rx="5" fill="darkgrey" class="green-rect rect-stroke" stroke="black"></rect>
                        <text fill="black" y="403" x="48" font-size="20px">CA</text><text fill="black" y="483" x="48" font-size="80px">1.19M</text></g>
                        <g id="OR" class="state-tile-ctr">
                            <rect id="OR_2" x="267" y="293" width="27" height="26" rx="5" fill="darkgrey" class="green-rect rect-stroke" stroke="black"></rect>
                        <text fill="black" y="306.5" x="304" font-size="20px">OR</text><text fill="black" y="321.5" x="304" font-size="12px">129k</text></g>
                        <g id="WA" class="state-tile-ctr">
                            <rect id="WA_2" x="246" y="201" width="47" height="47" rx="5" fill="darkgrey" class="green-rect rect-stroke" stroke="black"></rect>
                        <text fill="black" y="221" x="251" font-size="20px">WA</text><text fill="black" y="239.07714016933207" x="251" font-size="18.077140169332075px">226k</text></g>
                    </g>
                    <g id="AK" class="state-tile-ctr">
                        <rect id="AK_2" x="222" y="733" width="4" height="4" rx="2" fill="white" class="red-rect rect-stroke" stroke="black"></rect>
                    <text fill="black" y="735" x="236" font-size="20px">AK</text><text fill="black" y="750" x="236" font-size="12px">15k</text></g>
                    <g id="next coast">
                        <g id="ID" class="state-tile-ctr">
                            <rect id="ID_2" x="379" y="149" width="5" height="5" rx="2.5" fill="white" class="red-rect rect-stroke" stroke="black"></rect>
                        <text fill="black" y="151.5" x="394" font-size="20px">ID</text><text fill="black" y="166.5" x="394" font-size="12px">25k</text></g>
                        <g id="NV" class="state-tile-ctr">
                            <rect id="NV_2" x="384" y="391" width="21" height="21" rx="5" fill="darkgrey" class="green-rect rect-stroke" stroke="black"></rect>
                        <text fill="black" y="401.5" x="415" font-size="20px">NV</text><text fill="black" y="416.5" x="415" font-size="12px">92k</text></g>
                        <g id="UT" class="state-tile-ctr">
                            <rect id="UT_2" x="384" y="265" width="16" height="15" rx="5" fill="darkgrey" class="green-rect rect-stroke" stroke="black"></rect>
                        <text fill="black" y="273" x="410" font-size="20px">UT</text><text fill="black" y="288" x="410" font-size="12px">67k</text></g>
                        <g id="AZ" class="state-tile-ctr">
                            <rect id="AZ_2" x="384" y="523" width="38" height="38" rx="5" fill="white" class="red-rect rect-stroke" stroke="black"></rect>
                        <text fill="black" y="543" x="389" font-size="20px">AZ</text><text fill="black" y="558.0705550329257" x="389" font-size="15.070555032925684px">179k</text></g>
                    </g>
                    <g id="mid west 1">
                        <g id="NM" class="state-tile-ctr">
                            <rect id="NM_2" x="484" y="560" width="11" height="10" rx="5" fill="darkgrey" class="green-rect rect-stroke" stroke="black"></rect>
                        <text fill="black" y="565.5" x="505" font-size="20px">NM</text><text fill="black" y="580.5" x="505" font-size="12px">47k</text></g>
                        <g id="CO" class="state-tile-ctr">
                            <rect id="CO_2" x="484" y="422" width="33" height="33" rx="5" fill="darkgrey" class="green-rect rect-stroke" stroke="black"></rect>
                        <text fill="black" y="438.5" x="527" font-size="20px">CO</text><text fill="black" y="453.5" x="527" font-size="12px">156k</text></g>
                        <g id="WY" class="state-tile-ctr">
                            <rect id="WY_2" x="488" y="315" width="1" height="2" rx="0.5" fill="white" class="red-rect rect-stroke" stroke="black"></rect>
                        <text fill="black" y="315.5" x="499" font-size="20px">WY</text><text fill="black" y="330.5" x="499" font-size="12px">10k</text></g>
                        <g id="MT" class="state-tile-ctr">
                            <rect id="MT_2" x="484" y="206" width="5" height="4" rx="2" fill="white" class="red-rect rect-stroke" stroke="black"></rect>
                        <text fill="black" y="208.5" x="499" font-size="20px">MT</text><text fill="black" y="223.5" x="499" font-size="12px">18k</text></g>
                    </g>
                    <g id="mid west 2">
                        <g id="OK" class="state-tile-ctr">
                            <rect id="OK_2" x="579" y="506" width="16" height="16" rx="5" fill="white" class="red-rect rect-stroke" stroke="black"></rect>
                        <text fill="black" y="514" x="605" font-size="20px">OK</text><text fill="black" y="529" x="605" font-size="12px">74k</text></g>
                        <g id="KS" class="state-tile-ctr">
                            <rect id="KS_2" x="579" y="430" width="13" height="12" rx="5" fill="white" class="red-rect rect-stroke" stroke="black"></rect>
                        <text fill="black" y="436.5" x="602" font-size="20px">KS</text><text fill="black" y="451.5" x="602" font-size="12px">56k</text></g>
                        <g id="NE" class="state-tile-ctr">
                            <rect id="NE_2" x="579" y="349" width="9" height="11" rx="4.5" fill="white" class="red-rect rect-stroke" stroke="black"></rect>
                        <text fill="black" y="353.5" x="598" font-size="20px">NE</text><text fill="black" y="368.5" x="598" font-size="12px">45k</text></g>
                        <g id="SD" class="state-tile-ctr">
                            <rect id="SD_2" x="579" y="288" width="4" height="3" rx="1.5" fill="white" class="red-rect rect-stroke" stroke="black"></rect>
                        <text fill="black" y="290" x="593" font-size="20px">SD</text><text fill="black" y="305" x="593" font-size="12px">15k</text></g>
                        <g id="ND" class="state-tile-ctr">
                            <rect id="ND_2" x="579" y="223" width="2" height="1" rx="0.5" fill="white" class="red-rect rect-stroke" stroke="black"></rect>
                        <text fill="black" y="224" x="591" font-size="20px">ND</text><text fill="black" y="239" x="591" font-size="12px">12k</text></g>
                    </g>
                    <g id="mid 1">
                        <g id="MN" class="state-tile-ctr">
                            <rect id="MN_2" x="671" y="216" width="28" height="28" rx="5" fill="darkgrey" class="green-rect rect-stroke" stroke="black"></rect>
                        <text fill="black" y="230" x="709" font-size="20px">MN</text><text fill="black" y="245" x="709" font-size="12px">135k</text></g>
                        <g id="IA" class="state-tile-ctr">
                            <rect id="IA_2" x="671" y="304" width="12" height="12" rx="5" fill="darkgrey" class="green-rect rect-stroke" stroke="black"></rect>
                        <text fill="black" y="310" x="693" font-size="20px">IA</text><text fill="black" y="325" x="693" font-size="12px">59k</text></g>
                        <g id="MO" class="state-tile-ctr">
                            <rect id="MO_2" x="671" y="356" width="28" height="28" rx="5" fill="white" class="red-rect rect-stroke" stroke="black"></rect>
                        <text fill="black" y="370" x="709" font-size="20px">MO</text><text fill="black" y="385" x="709" font-size="12px">131k</text></g>
                        <g id="AR" class="state-tile-ctr">
                            <rect id="AR_2" x="671" y="434" width="11" height="10" rx="5" fill="white" class="red-rect rect-stroke" stroke="black"></rect>
                        <text fill="black" y="439.5" x="692" font-size="20px">AR</text><text fill="black" y="454.5" x="692" font-size="12px">50k</text></g>
                        <g id="LA" class="state-tile-ctr">
                            <rect id="LA_2" x="671" y="494" width="19" height="19" rx="5" fill="white" class="red-rect rect-stroke" stroke="black"></rect>
                        <text fill="black" y="503.5" x="700" font-size="20px">LA</text><text fill="black" y="518.5" x="700" font-size="12px">94k</text></g>
                    </g>
                    <g id="mid 2">
                        <g id="MS" class="state-tile-ctr">
                            <rect id="MS_2" x="767" y="589" width="10" height="11" rx="5" fill="white" class="red-rect rect-stroke" stroke="black"></rect>
                        <text fill="black" y="594" x="787" font-size="20px">MS</text><text fill="black" y="609" x="787" font-size="12px">48k</text></g>
                        <g id="IL" class="state-tile-ctr">
                            <rect id="IL_2" x="767" y="371" width="70" height="70" rx="5" fill="darkgrey" class="green-rect rect-stroke" stroke="black"></rect>
                        <text fill="black" y="391" x="772" font-size="20px">IL</text><text fill="black" y="415.4741298212606" x="772" font-size="24.474129821260583px">326k</text></g>
                        <g id="WI" class="state-tile-ctr">
                            <rect id="WI_2" x="767" y="201" width="23" height="22" rx="5" fill="darkgrey" class="green-rect rect-stroke" stroke="black"></rect>
                        <text fill="black" y="212.5" x="800" font-size="20px">WI</text><text fill="black" y="227.5" x="800" font-size="12px">110k</text></g>
                    </g>
                    <g id="mid 3">
                        <g id="AL" class="state-tile-ctr">
                            <rect id="AL_2" x="879" y="621" width="16" height="15" rx="5" fill="white" class="red-rect rect-stroke" stroke="black"></rect>
                        <text fill="black" y="629" x="905" font-size="20px">AL</text><text fill="black" y="644" x="905" font-size="12px">78k</text></g>
                        <g id="TN" class="state-tile-ctr">
                            <rect id="TN_2" x="879" y="520" width="28" height="28" rx="5" fill="white" class="red-rect rect-stroke" stroke="black"></rect>
                        <text fill="black" y="534" x="917" font-size="20px">TN</text><text fill="black" y="549" x="917" font-size="12px">133k</text></g>
                        <g id="KY" class="state-tile-ctr">
                            <rect id="KY_2" x="879" y="430" width="18" height="17" rx="5" fill="white" class="red-rect rect-stroke" stroke="black"></rect>
                        <text fill="black" y="439" x="907" font-size="20px">KY</text><text fill="black" y="454" x="907" font-size="12px">82k</text></g>
                        <g id="IN" class="state-tile-ctr">
                            <rect id="IN_2" x="879" y="322" width="35" height="35" rx="5" fill="white" class="red-rect rect-stroke" stroke="black"></rect>
                        <text fill="black" y="342" x="884" font-size="20px">IN</text><text fill="black" y="356.1749764816557" x="884" font-size="14.174976481655689px">165k</text></g>
                        <g id="MI" class="state-tile-ctr">
                            <rect id="MI_2" x="879" y="202" width="49" height="47" rx="5" fill="white" class="red-rect rect-stroke" stroke="black"></rect>
                        <text fill="black" y="222" x="884" font-size="20px">MI</text><text fill="black" y="240.26904985888993" x="884" font-size="18.269049858889932px">229k</text></g>
                    </g>
                    <g id="east next">
                        <g id="GA" class="state-tile-ctr">
                            <rect id="GA_2" x="990" y="585" width="58" height="58" rx="5" fill="white" class="red-rect rect-stroke" stroke="black"></rect>
                        <text fill="black" y="605" x="995" font-size="20px">GA</text><text fill="black" y="625.9557855126999" x="995" font-size="20.955785512699908px">271k</text></g>
                        <g id="OH" class="state-tile-ctr">
                            <rect id="OH_2" x="990" y="459" width="63" height="63" rx="5" fill="white" class="red-rect rect-stroke" stroke="black"></rect>
                        <text fill="black" y="479" x="995" font-size="20px">OH</text><text fill="black" y="501.6829727187206" x="995" font-size="22.6829727187206px">298k</text></g>
                        <g id="PA" class="state-tile-ctr">
                            <rect id="PA_2" x="990" y="332" width="66" height="64" rx="5" fill="white" class="red-rect rect-stroke" stroke="black"></rect>
                        <text fill="black" y="352" x="995" font-size="20px">PA</text><text fill="black" y="375.25870178739416" x="995" font-size="23.258701787394166px">307k</text></g>
                        <g id="WV" class="state-tile-ctr">
                            <rect id="WV_2" x="1048" y="426" width="8" height="7" rx="3.5" fill="white" class="red-rect rect-stroke" stroke="black"></rect>
                        <text fill="black" y="430" x="1066" font-size="20px">WV</text><text fill="black" y="445" x="1066" font-size="12px">40k</text></g>
                    </g>
                    <g id="east coast">
                        <g id="SC" class="state-tile-ctr">
                            <rect id="SC_2" x="1103" y="682" width="21" height="21" rx="5" fill="white" class="red-rect rect-stroke" stroke="black"></rect>
                        <text fill="black" y="692.5" x="1134" font-size="20px">SC</text><text fill="black" y="707.5" x="1134" font-size="12px">99k</text></g>
                        <g id="NC" class="state-tile-ctr">
                            <rect id="NC_2" x="1103" y="610" width="50" height="51" rx="5" fill="white" class="red-rect rect-stroke" stroke="black"></rect>
                        <text fill="black" y="630" x="1108" font-size="20px">NC</text><text fill="black" y="648.8447789275635" x="1108" font-size="18.8447789275635px">238k</text></g>
                        <g id="VA" class="state-tile-ctr">
                            <rect id="VA_2" x="1103" y="547" width="42" height="42" rx="5" fill="white" class="red-rect rect-stroke" stroke="black"></rect>
                        <text fill="black" y="567" x="1108" font-size="20px">VA</text><text fill="black" y="583.2220131702728" x="1108" font-size="16.222013170272813px">197k</text></g>
                        <g id="DC" class="state-tile-ctr">
                            <rect id="DC_2" x="1145" y="517" width="4.5" height="4.5" rx="2.25" fill="darkgrey" class="green-rect rect-stroke" stroke="black"></rect>
                        <text fill="black" y="519" x="1159" font-size="20px">DC</text><text fill="black" y="534" x="1159" font-size="12px">45k</text></g>
                        <g id="MD" class="state-tile-ctr">
                            <rect id="MD_2" x="1131" y="449" width="33" height="34" rx="5" fill="darkgrey" class="green-rect rect-stroke" stroke="black"></rect>
                        <text fill="black" y="465.5" x="1174" font-size="20px">MD</text><text fill="black" y="480.5" x="1174" font-size="12px">151k</text></g>
                        <g id="DE" class="state-tile-ctr">
                            <rect id="DE_2" x="1194" y="412" width="6" height="5" rx="2.5" fill="darkgrey" class="green-rect rect-stroke" stroke="black"></rect>
                        <text fill="black" y="415" x="1210" font-size="20px">DE</text><text fill="black" y="430" x="1210" font-size="12px">24k</text></g>
                        <g id="NJ" class="state-tile-ctr">
                            <rect id="NJ_2" x="1147" y="333" width="44" height="43" rx="5" fill="darkgrey" class="green-rect rect-stroke" stroke="black"></rect>
                        <text fill="black" y="353" x="1152" font-size="20px">NJ</text><text fill="black" y="369.7337723424271" x="1152" font-size="16.733772342427095px">205k</text></g>
                    </g>
                    <g id="NY" class="state-tile-ctr">
                        <rect id="NY_2" x="1124" y="185" width="124" height="123" rx="5" fill="darkgrey" class="green-rect rect-stroke" stroke="black"></rect>
                    <text fill="black" y="205" x="1129" font-size="20px">NY</text><text fill="black" y="246.23424270931326" x="1129" font-size="41.234242709313264px">588k</text></g>
                    <g id="what">
                        <g id="CT" class="state-tile-ctr">
                            <rect id="CT_2" x="1268" y="304" width="17" height="17" rx="5" fill="darkgrey" class="green-rect rect-stroke" stroke="black"></rect>
                        <text fill="black" y="312.5" x="1295" font-size="20px">CT</text><text fill="black" y="327.5" x="1295" font-size="12px">82k</text></g>
                        <g id="RI" class="state-tile-ctr">
                            <rect id="RI_2" x="1317" y="261" width="5" height="5" rx="2.5" fill="darkgrey" class="green-rect rect-stroke" stroke="black"></rect>
                        <text fill="black" y="263.5" x="1332" font-size="20px">RI</text><text fill="black" y="278.5" x="1332" font-size="12px">29k</text></g>
                        <g id="MA" class="state-tile-ctr">
                            <rect id="MA_2" x="1287" y="183" width="47" height="47" rx="5" fill="darkgrey" class="green-rect rect-stroke" stroke="black"></rect>
                        <text fill="black" y="203" x="1292" font-size="20px">MA</text><text fill="black" y="220.9492003762935" x="1292" font-size="17.949200376293504px">224k</text></g>
                        <g id="NH" class="state-tile-ctr">
                            <rect id="NH_2" x="1327" y="144" width="7" height="7" rx="3.5" fill="darkgrey" class="green-rect rect-stroke" stroke="black"></rect>
                        <text fill="black" y="147.5" x="1344" font-size="20px">NH</text><text fill="black" y="162.5" x="1344" font-size="12px">35k</text></g>
                        <g id="VT" class="state-tile-ctr">
                            <rect id="VT_2" x="1269" y="124" width="1.9" height="1.9" rx="0.95" fill="darkgrey" class="green-rect rect-stroke" stroke="black"></rect>
                        <text fill="black" y="124.5" x="1280" font-size="20px">VT</text><text fill="black" y="139.5" x="1280" font-size="12px">19k</text></g>
                        <g id="ME" class="state-tile-ctr">
                            <rect id="ME_2" x="1327" y="96" width="7" height="7" rx="3.5" fill="darkgrey" class="green-rect rect-stroke" stroke="black"></rect>
                        <text fill="black" y="99.5" x="1344" font-size="20px">ME</text><text fill="black" y="114.5" x="1344" font-size="12px">35k</text></g>
                    </g>
                </g>
            </g>
        </g>
    </svg>